<svg width="134" height="40" viewBox="0 0 134 40" fill="none" xmlns="http://www.w3.org/2000/svg">
<path d="M18.9168 1.66675C8.79157 1.66675 0.583496 9.87486 0.583496 20.0001C0.583496 30.1253 8.79157 38.3334 18.9168 38.3334C28.001 38.3334 35.542 31.7264 36.9967 23.0556H36.8651C35.5083 28.3272 30.723 32.2223 25.0279 32.2223C18.2778 32.2223 12.8057 26.7502 12.8057 20.0001C12.8057 13.2499 18.2778 7.77786 25.0279 7.77786C30.723 7.77786 35.5083 11.673 36.8651 16.9445H36.9967C35.542 8.27373 28.001 1.66675 18.9168 1.66675Z" fill="#A4BCFD"/>
<path d="M0.583496 20.0001C0.583496 9.87486 8.79161 1.66675 18.9168 1.66675C28.001 1.66675 35.542 8.27373 36.9967 16.9445H24.6429C23.2861 11.673 18.5008 7.77786 12.8057 7.77786C6.05557 7.77786 0.583496 13.2499 0.583496 20.0001Z" fill="#3538CD"/>
<path d="M0.583496 20.0002C0.583496 30.1254 8.79161 38.3335 18.9168 38.3335C28.001 38.3335 35.542 31.7265 36.9967 23.0557H24.6429C23.2861 28.3272 18.5008 32.2224 12.8057 32.2224C6.05557 32.2224 0.583496 26.7503 0.583496 20.0002Z" fill="#3538CD"/>
<path d="M63.4494 17.0892C62.9273 13.3191 60.0273 11.1316 56.2654 11.1316C51.8324 11.1316 48.4932 14.3631 48.4932 19.8484C48.4932 25.3255 51.791 28.5653 56.2654 28.5653C60.3007 28.5653 62.9771 25.9552 63.4494 22.7154L60.3504 22.6988C59.961 24.6875 58.3369 25.8061 56.3068 25.8061C53.5559 25.8061 51.5838 23.7429 51.5838 19.8484C51.5838 16.0203 53.5393 13.8908 56.3151 13.8908C58.3783 13.8908 59.9941 15.0591 60.3504 17.0892H63.4494Z" fill="#101828"/>
<path d="M69.7944 28.5902C71.7913 28.5902 72.9845 27.6538 73.5313 26.585H73.6308V28.3333H76.5143V19.8153C76.5143 16.4512 73.7716 15.4403 71.3438 15.4403C68.6675 15.4403 66.6125 16.6335 65.9497 18.9536L68.7503 19.3513C69.0486 18.4813 69.8938 17.7355 71.3604 17.7355C72.7524 17.7355 73.5148 18.4481 73.5148 19.6993V19.749C73.5148 20.6108 72.6116 20.6522 70.3661 20.8925C67.8969 21.1576 65.5354 21.8951 65.5354 24.762C65.5354 27.2644 67.3666 28.5902 69.7944 28.5902ZM70.5732 26.3861C69.3221 26.3861 68.4272 25.8144 68.4272 24.7123C68.4272 23.5606 69.4298 23.08 70.7721 22.8894C71.5593 22.7817 73.1336 22.5828 73.523 22.268V23.7677C73.523 25.1846 72.3796 26.3861 70.5732 26.3861Z" fill="#101828"/>
<path d="M85.8857 15.606H83.3751V12.5568H80.3756V15.606H78.5692V17.9261H80.3756V25.0023C80.359 27.397 82.099 28.5736 84.3528 28.5073C85.2063 28.4824 85.7946 28.3167 86.1177 28.209L85.6123 25.8641C85.4466 25.9055 85.1068 25.9801 84.734 25.9801C83.98 25.9801 83.3751 25.7149 83.3751 24.5052V17.9261H85.8857V15.606Z" fill="#101828"/>
<path d="M92.0567 28.5902C94.0536 28.5902 95.2468 27.6538 95.7937 26.585H95.8931V28.3333H98.7766V19.8153C98.7766 16.4512 96.034 15.4403 93.6062 15.4403C90.9298 15.4403 88.8749 16.6335 88.212 18.9536L91.0127 19.3513C91.311 18.4813 92.1562 17.7355 93.6228 17.7355C95.0148 17.7355 95.7771 18.4481 95.7771 19.6993V19.749C95.7771 20.6108 94.874 20.6522 92.6285 20.8925C90.1592 21.1576 87.7977 21.8951 87.7977 24.762C87.7977 27.2644 89.6289 28.5902 92.0567 28.5902ZM92.8356 26.3861C91.5844 26.3861 90.6895 25.8144 90.6895 24.7123C90.6895 23.5606 91.6921 23.08 93.0345 22.8894C93.8216 22.7817 95.396 22.5828 95.7854 22.268V23.7677C95.7854 25.1846 94.6419 26.3861 92.8356 26.3861Z" fill="#101828"/>
<path d="M104.792 11.3636H101.793V28.3333H104.792V11.3636Z" fill="#101828"/>
<path d="M113.428 28.5819C117.157 28.5819 119.527 25.9552 119.527 22.0194C119.527 18.0752 117.157 15.4403 113.428 15.4403C109.7 15.4403 107.33 18.0752 107.33 22.0194C107.33 25.9552 109.7 28.5819 113.428 28.5819ZM113.445 26.1789C111.382 26.1789 110.371 24.3395 110.371 22.0111C110.371 19.6827 111.382 17.8184 113.445 17.8184C115.475 17.8184 116.486 19.6827 116.486 22.0111C116.486 24.3395 115.475 26.1789 113.445 26.1789Z" fill="#101828"/>
<path d="M127.608 33.3712C131.046 33.3712 133.582 31.7968 133.582 28.5404V15.606H130.624V17.7107H130.458C130.002 16.7909 129.049 15.4403 126.804 15.4403C123.862 15.4403 121.551 17.7438 121.551 21.9282C121.551 26.0795 123.862 28.151 126.796 28.151C128.975 28.151 129.994 26.9827 130.458 26.0464H130.607V28.4576C130.607 30.3302 129.364 31.1008 127.657 31.1008C125.851 31.1008 125.056 30.2474 124.691 29.5016L121.99 30.1562C122.537 31.9377 124.368 33.3712 127.608 33.3712ZM127.633 25.7978C125.652 25.7978 124.608 24.2566 124.608 21.9117C124.608 19.5999 125.636 17.9012 127.633 17.9012C129.563 17.9012 130.624 19.5004 130.624 21.9117C130.624 24.3395 129.547 25.7978 127.633 25.7978Z" fill="#101828"/>
</svg>
