<svg width="184" height="48" viewBox="0 0 184 48" fill="none" xmlns="http://www.w3.org/2000/svg">
<path d="M16.2979 33.4287C24.9766 33.4287 32.0122 26.3932 32.0122 17.7144C32.0122 16.7308 31.9218 15.7683 31.7489 14.8348C30.8154 14.6619 29.8529 14.5715 28.8693 14.5715C20.1906 14.5715 13.155 21.6071 13.155 30.2858C13.155 31.2694 13.2454 32.2319 13.4183 33.1654C14.3518 33.3383 15.3143 33.4287 16.2979 33.4287Z" fill="#175CD3"/>
<path fill-rule="evenodd" clip-rule="evenodd" d="M13.4182 33.1653C6.11467 31.8127 0.583496 25.4095 0.583496 17.7143C0.583496 9.03553 7.61902 2 16.2978 2C23.993 2 30.3962 7.53118 31.7488 14.8347C30.8153 14.6618 29.8528 14.5714 28.8692 14.5714C20.1905 14.5714 13.1549 21.607 13.1549 30.2857C13.1549 31.2693 13.2453 32.2318 13.4182 33.1653Z" fill="#1570EF"/>
<path fill-rule="evenodd" clip-rule="evenodd" d="M16.2978 33.4286C24.9766 33.4286 32.0121 26.3931 32.0121 17.7143C32.0121 16.7307 31.9217 15.7682 31.7489 14.8347C39.0524 16.1873 44.5835 22.5906 44.5835 30.2858C44.5835 38.9645 37.548 46 28.8693 46C21.1741 46 14.7708 40.4689 13.4182 33.1654C14.3517 33.3382 15.3142 33.4286 16.2978 33.4286Z" fill="#2E90FA"/>
<path d="M74.8116 28.9039C74.2516 30.7146 73.2716 32.0679 71.8716 32.9639C70.4716 33.8413 68.8383 34.2799 66.9716 34.2799C65.1423 34.2799 63.5556 33.8973 62.2116 33.1319C60.8863 32.3666 59.8596 31.2746 59.1316 29.8559C58.4223 28.4373 58.0676 26.7386 58.0676 24.7599C58.0676 22.7813 58.4316 21.0826 59.1596 19.6639C59.8876 18.2453 60.9143 17.1533 62.2396 16.3879C63.565 15.6226 65.1236 15.2399 66.9156 15.2399C68.801 15.2399 70.4156 15.6413 71.7596 16.4439C73.1223 17.2279 74.0556 18.4226 74.5596 20.0279L71.0596 21.5119C70.7423 20.3919 70.257 19.5986 69.6036 19.1319C68.9503 18.6466 68.1103 18.4039 67.0836 18.4039C65.553 18.4039 64.3303 18.9546 63.4156 20.0559C62.5196 21.1386 62.0716 22.7066 62.0716 24.7599C62.0716 26.7946 62.501 28.3626 63.3596 29.4639C64.2183 30.5653 65.4596 31.1159 67.0836 31.1159C68.0916 31.1159 68.9596 30.8453 69.6876 30.3039C70.4343 29.7626 70.957 28.9413 71.2556 27.8399L74.8116 28.9039Z" fill="#101828"/>
<path d="M79.6449 17.9839C78.0582 17.9839 77.2649 17.3026 77.2649 15.9399C77.2649 14.5586 78.0582 13.8679 79.6449 13.8679C81.2316 13.8679 82.0249 14.5586 82.0249 15.9399C82.0249 17.3026 81.2316 17.9839 79.6449 17.9839ZM81.5489 19.9999V33.9999H77.7129V19.9999H81.5489Z" fill="#101828"/>
<path d="M85.6152 33.9999V19.9999H88.9472L89.1992 22.7439C89.5539 21.7919 90.0859 21.0546 90.7952 20.5319C91.5232 19.9906 92.4379 19.7199 93.5392 19.7199C94.1926 19.7199 94.6966 19.8226 95.0512 20.0279L94.6032 23.2479C94.4166 23.1919 94.1832 23.1453 93.9032 23.1079C93.6419 23.0519 93.2966 23.0239 92.8672 23.0239C92.2886 23.0239 91.7379 23.1639 91.2152 23.4439C90.7112 23.7053 90.2912 24.1159 89.9552 24.6759C89.6192 25.2173 89.4512 25.9079 89.4512 26.7479V33.9999H85.6152Z" fill="#101828"/>
<path d="M103.51 19.7199C105.377 19.7199 106.824 20.1213 107.85 20.9239C108.896 21.7266 109.586 22.6973 109.922 23.8359L106.338 25.1239C105.965 23.4253 105.041 22.5759 103.566 22.5759C102.502 22.5759 101.672 22.9493 101.074 23.6959C100.496 24.4426 100.206 25.5533 100.206 27.0279C100.206 28.5213 100.505 29.6319 101.102 30.3599C101.718 31.0693 102.549 31.4239 103.594 31.4239C105.218 31.4239 106.189 30.5933 106.506 28.9319L109.978 30.0519C109.661 31.3026 108.952 32.3199 107.85 33.1039C106.768 33.8879 105.358 34.2799 103.622 34.2799C102.166 34.2799 100.888 33.9906 99.7863 33.4119C98.7036 32.8333 97.8636 32.0026 97.2663 30.9199C96.669 29.8373 96.3703 28.5306 96.3703 26.9999C96.3703 25.4693 96.669 24.1626 97.2663 23.0799C97.8823 21.9973 98.7223 21.1666 99.7863 20.5879C100.869 20.0093 102.11 19.7199 103.51 19.7199Z" fill="#101828"/>
<path d="M119.343 19.7199C120.743 19.7199 121.984 20.0093 123.067 20.5879C124.15 21.1666 124.99 21.9973 125.587 23.0799C126.203 24.1626 126.511 25.4693 126.511 26.9999C126.511 28.5306 126.203 29.8373 125.587 30.9199C124.99 32.0026 124.15 32.8333 123.067 33.4119C121.984 33.9906 120.743 34.2799 119.343 34.2799C117.924 34.2799 116.674 33.9906 115.591 33.4119C114.527 32.8333 113.687 32.0026 113.071 30.9199C112.474 29.8373 112.175 28.5306 112.175 26.9999C112.175 25.4693 112.474 24.1626 113.071 23.0799C113.687 21.9973 114.527 21.1666 115.591 20.5879C116.674 20.0093 117.924 19.7199 119.343 19.7199ZM119.343 22.5759C118.298 22.5759 117.476 22.9493 116.879 23.6959C116.3 24.4239 116.011 25.5253 116.011 26.9999C116.011 28.4746 116.3 29.5853 116.879 30.3319C117.476 31.0599 118.298 31.4239 119.343 31.4239C120.37 31.4239 121.172 31.0599 121.751 30.3319C122.348 29.5853 122.647 28.4746 122.647 26.9999C122.647 25.5253 122.348 24.4239 121.751 23.6959C121.172 22.9493 120.37 22.5759 119.343 22.5759Z" fill="#101828"/>
<path d="M136.105 19.7199C137.505 19.7199 138.746 20.0093 139.829 20.5879C140.911 21.1666 141.751 21.9973 142.349 23.0799C142.965 24.1626 143.273 25.4693 143.273 26.9999C143.273 28.5306 142.965 29.8373 142.349 30.9199C141.751 32.0026 140.911 32.8333 139.829 33.4119C138.746 33.9906 137.505 34.2799 136.105 34.2799C134.686 34.2799 133.435 33.9906 132.353 33.4119C131.289 32.8333 130.449 32.0026 129.833 30.9199C129.235 29.8373 128.937 28.5306 128.937 26.9999C128.937 25.4693 129.235 24.1626 129.833 23.0799C130.449 21.9973 131.289 21.1666 132.353 20.5879C133.435 20.0093 134.686 19.7199 136.105 19.7199ZM136.105 22.5759C135.059 22.5759 134.238 22.9493 133.641 23.6959C133.062 24.4239 132.773 25.5253 132.773 26.9999C132.773 28.4746 133.062 29.5853 133.641 30.3319C134.238 31.0599 135.059 31.4239 136.105 31.4239C137.131 31.4239 137.934 31.0599 138.513 30.3319C139.11 29.5853 139.409 28.4746 139.409 26.9999C139.409 25.5253 139.11 24.4239 138.513 23.6959C137.934 22.9493 137.131 22.5759 136.105 22.5759Z" fill="#101828"/>
<path d="M150.262 13.8679V29.6879C150.262 30.3413 150.374 30.7986 150.598 31.0599C150.822 31.3213 151.196 31.4519 151.718 31.4519C152.036 31.4519 152.297 31.4333 152.502 31.3959C152.708 31.3586 152.969 31.2839 153.286 31.1719L152.95 33.6919C152.633 33.8786 152.232 34.0186 151.746 34.1119C151.28 34.2239 150.813 34.2799 150.346 34.2799C148.984 34.2799 147.985 33.9533 147.35 33.2999C146.734 32.6279 146.426 31.5639 146.426 30.1079V13.8679H150.262Z" fill="#101828"/>
<path d="M161.92 34.2799C159.717 34.2799 157.953 33.6453 156.628 32.3759C155.302 31.0879 154.64 29.2959 154.64 26.9999C154.64 25.4693 154.938 24.1626 155.536 23.0799C156.133 21.9973 156.964 21.1666 158.028 20.5879C159.11 20.0093 160.342 19.7199 161.724 19.7199C163.142 19.7199 164.346 20.0093 165.336 20.5879C166.325 21.1479 167.081 21.9226 167.604 22.9119C168.126 23.8826 168.388 24.9933 168.388 26.2439C168.388 26.6173 168.378 26.9719 168.36 27.3079C168.341 27.6439 168.313 27.9426 168.276 28.2039H158.392C158.541 29.2866 158.914 30.0986 159.512 30.6399C160.128 31.1626 160.921 31.4239 161.892 31.4239C162.713 31.4239 163.376 31.2653 163.88 30.9479C164.384 30.6306 164.776 30.1919 165.056 29.6319L168.108 30.8079C167.66 31.9093 166.876 32.7679 165.756 33.3839C164.636 33.9813 163.357 34.2799 161.92 34.2799ZM161.696 22.5479C159.885 22.5479 158.793 23.5466 158.42 25.5439H164.72C164.608 24.5733 164.29 23.8359 163.768 23.3319C163.264 22.8093 162.573 22.5479 161.696 22.5479Z" fill="#101828"/>
<path d="M177.239 34.2799C175.82 34.2799 174.523 34.0279 173.347 33.5239C172.189 33.0199 171.247 32.3106 170.519 31.3959L172.731 29.1559C173.179 29.8279 173.776 30.3786 174.523 30.8079C175.269 31.2373 176.156 31.4519 177.183 31.4519C177.911 31.4519 178.489 31.3493 178.919 31.1439C179.367 30.9199 179.591 30.5746 179.591 30.1079C179.591 29.8093 179.488 29.5573 179.283 29.3519C179.077 29.1279 178.667 28.9506 178.051 28.8199L175.587 28.3159C173.963 27.9799 172.805 27.4759 172.115 26.8039C171.443 26.1133 171.107 25.2266 171.107 24.1439C171.107 23.3786 171.331 22.6599 171.779 21.9879C172.245 21.3159 172.936 20.7746 173.851 20.3639C174.765 19.9346 175.904 19.7199 177.267 19.7199C180.104 19.7199 182.139 20.5879 183.371 22.3239L181.075 24.5639C180.664 23.9106 180.123 23.4159 179.451 23.0799C178.797 22.7253 178.107 22.5479 177.379 22.5479C175.736 22.5479 174.915 23.0053 174.915 23.9199C174.915 24.2186 175.045 24.4799 175.307 24.7039C175.568 24.9093 176.044 25.0866 176.735 25.2359L179.591 25.8239C180.972 26.1039 181.961 26.5799 182.559 27.2519C183.156 27.9053 183.455 28.6986 183.455 29.6319C183.455 30.9759 182.913 32.0866 181.831 32.9639C180.767 33.8413 179.236 34.2799 177.239 34.2799Z" fill="#101828"/>
</svg>
