<svg width="98" height="32" viewBox="0 0 98 32" fill="none" xmlns="http://www.w3.org/2000/svg">
<path d="M9.26843 14.8788C9.8166 12.8333 11.9192 10.7307 13.9647 10.1825L26.7174 6.76491C28.7629 6.21674 29.9767 7.43057 29.4285 9.47608L26.011 22.2287C25.4628 24.2742 23.3602 26.3768 21.3147 26.925L8.56202 30.3426C6.5165 30.8908 5.30267 29.6769 5.85085 27.6314L9.26843 14.8788Z" fill="#9E77ED"/>
<path d="M4.15588 9.76623C4.70405 7.72071 6.80665 5.61812 8.85217 5.06994L21.6048 1.65236C23.6503 1.10418 24.8642 2.31801 24.316 4.36353L20.8984 17.1162C20.3502 19.1617 18.2476 21.2643 16.2021 21.8125L3.44947 25.23C1.40396 25.7782 0.190123 24.5644 0.738299 22.5189L4.15588 9.76623Z" fill="#6941C6"/>
<path d="M41.2781 20.9494H45.6648V22.6667H39.1501V9.69336H41.2781V20.9494Z" fill="#101828"/>
<path d="M46.7351 17.4774C46.7351 16.4445 46.9466 15.5298 47.3697 14.7334C47.8053 13.9369 48.3902 13.3209 49.1244 12.8854C49.8711 12.4374 50.6924 12.2134 51.5884 12.2134C52.3973 12.2134 53.1004 12.3751 53.6977 12.6987C54.3075 13.0098 54.7929 13.4018 55.1537 13.8747V12.3814H57.3004V22.6667H55.1537V21.136C54.7929 21.6214 54.3013 22.0258 53.6791 22.3494C53.0569 22.6729 52.3475 22.8347 51.5511 22.8347C50.6675 22.8347 49.8586 22.6107 49.1244 22.1627C48.3902 21.7022 47.8053 21.0676 47.3697 20.2587C46.9466 19.4374 46.7351 18.5102 46.7351 17.4774ZM55.1537 17.5147C55.1537 16.8054 55.0044 16.1894 54.7057 15.6667C54.4195 15.144 54.04 14.7458 53.5671 14.472C53.0942 14.1982 52.584 14.0614 52.0364 14.0614C51.4889 14.0614 50.9786 14.1982 50.5057 14.472C50.0329 14.7334 49.6471 15.1254 49.3484 15.648C49.0622 16.1582 48.9191 16.768 48.9191 17.4774C48.9191 18.1867 49.0622 18.8089 49.3484 19.344C49.6471 19.8791 50.0329 20.2898 50.5057 20.576C50.9911 20.8498 51.5013 20.9867 52.0364 20.9867C52.584 20.9867 53.0942 20.8498 53.5671 20.576C54.04 20.3022 54.4195 19.904 54.7057 19.3814C55.0044 18.8462 55.1537 18.224 55.1537 17.5147Z" fill="#101828"/>
<path d="M69.3541 12.3814L63.0448 27.5014H60.8421L62.9328 22.4987L58.8821 12.3814H61.2528L64.1461 20.2214L67.1515 12.3814H69.3541Z" fill="#101828"/>
<path d="M80.3867 17.272C80.3867 17.6578 80.3618 18.0062 80.312 18.3174H72.4534C72.5156 19.1387 72.8205 19.7982 73.368 20.296C73.9156 20.7938 74.5876 21.0427 75.384 21.0427C76.5289 21.0427 77.3378 20.5636 77.8107 19.6054H80.1067C79.7956 20.5511 79.2294 21.3289 78.408 21.9387C77.5991 22.536 76.5911 22.8347 75.384 22.8347C74.4009 22.8347 73.5174 22.6169 72.7334 22.1814C71.9618 21.7334 71.352 21.1111 70.904 20.3147C70.4685 19.5058 70.2507 18.5725 70.2507 17.5147C70.2507 16.4569 70.4623 15.5298 70.8854 14.7334C71.3209 13.9245 71.9245 13.3022 72.696 12.8667C73.48 12.4311 74.376 12.2134 75.384 12.2134C76.3547 12.2134 77.2196 12.4249 77.9787 12.848C78.7378 13.2711 79.3289 13.8685 79.752 14.64C80.1751 15.3991 80.3867 16.2765 80.3867 17.272ZM78.1654 16.6C78.1529 15.816 77.8729 15.1876 77.3254 14.7147C76.7778 14.2418 76.0996 14.0054 75.2907 14.0054C74.5565 14.0054 73.928 14.2418 73.4054 14.7147C72.8827 15.1751 72.5716 15.8036 72.472 16.6H78.1654Z" fill="#101828"/>
<path d="M84.6089 13.8747C84.92 13.352 85.3306 12.9476 85.8409 12.6614C86.3635 12.3627 86.9795 12.2134 87.6889 12.2134V14.416H87.1475C86.3138 14.416 85.6791 14.6276 85.2435 15.0507C84.8204 15.4738 84.6089 16.208 84.6089 17.2534V22.6667H82.4809V12.3814H84.6089V13.8747Z" fill="#101828"/>
<path d="M93.3783 22.8347C92.5694 22.8347 91.8414 22.6916 91.1943 22.4054C90.5596 22.1067 90.0556 21.7085 89.6823 21.2107C89.3089 20.7005 89.1098 20.1342 89.0849 19.512H91.2876C91.3249 19.9476 91.5303 20.3147 91.9036 20.6134C92.2894 20.8996 92.7685 21.0427 93.3409 21.0427C93.9383 21.0427 94.3987 20.9307 94.7223 20.7067C95.0583 20.4702 95.2263 20.1716 95.2263 19.8107C95.2263 19.4249 95.0396 19.1387 94.6663 18.952C94.3054 18.7654 93.7267 18.56 92.9303 18.336C92.1587 18.1245 91.5303 17.9191 91.0449 17.72C90.5596 17.5209 90.1365 17.216 89.7756 16.8054C89.4271 16.3947 89.2529 15.8534 89.2529 15.1814C89.2529 14.6338 89.4147 14.136 89.7383 13.688C90.0618 13.2276 90.5223 12.8667 91.1196 12.6054C91.7294 12.344 92.4263 12.2134 93.2103 12.2134C94.38 12.2134 95.3196 12.512 96.0289 13.1094C96.7507 13.6942 97.1365 14.4969 97.1863 15.5174H95.0583C95.0209 15.0569 94.8343 14.6898 94.4983 14.416C94.1623 14.1422 93.708 14.0054 93.1356 14.0054C92.5756 14.0054 92.1463 14.1111 91.8476 14.3227C91.5489 14.5342 91.3996 14.8142 91.3996 15.1627C91.3996 15.4365 91.4991 15.6667 91.6983 15.8534C91.8974 16.04 92.14 16.1894 92.4263 16.3014C92.7125 16.4009 93.1356 16.5316 93.6956 16.6934C94.4423 16.8925 95.052 17.0978 95.5249 17.3094C96.0103 17.5085 96.4271 17.8071 96.7756 18.2054C97.124 18.6036 97.3045 19.1325 97.3169 19.792C97.3169 20.3769 97.1551 20.8996 96.8316 21.36C96.508 21.8205 96.0476 22.1814 95.4503 22.4427C94.8654 22.704 94.1747 22.8347 93.3783 22.8347Z" fill="#101828"/>
</svg>
