<svg width="126" height="32" viewBox="0 0 126 32" fill="none" xmlns="http://www.w3.org/2000/svg">
<path fill-rule="evenodd" clip-rule="evenodd" d="M15.5834 24.311C20.1735 24.311 23.8945 20.59 23.8945 15.9999C23.8945 11.4098 20.1735 7.68881 15.5834 7.68881C10.9933 7.68881 7.2723 11.4098 7.2723 15.9999C7.2723 20.59 10.9933 24.311 15.5834 24.311ZM15.5834 30.6666C23.6836 30.6666 30.2501 24.1001 30.2501 15.9999C30.2501 7.89974 23.6836 1.33325 15.5834 1.33325C7.48324 1.33325 0.916748 7.89974 0.916748 15.9999C0.916748 24.1001 7.48324 30.6666 15.5834 30.6666Z" fill="#6938EF"/>
<path d="M15.7513 16.321C17.2787 14.7936 19.755 14.7936 21.2824 16.321L28.8877 23.9263C30.4151 25.4537 30.4151 27.9301 28.8877 29.4575C27.3604 30.9848 24.884 30.9848 23.3566 29.4575L15.7513 21.8521C14.2239 20.3248 14.2239 17.8484 15.7513 16.321Z" fill="#F670C7"/>
<path d="M17.8867 23.9876L22.7169 28.8178C25.0337 27.5257 26.9639 25.6237 28.2904 23.329L23.4997 18.5383C22.6582 21.1646 20.5461 23.2222 17.8867 23.9876Z" fill="#6519BA"/>
<path d="M53.93 24.0667C53.5069 24.5894 52.9905 24.9876 52.3807 25.2614C51.7834 25.5352 51.1238 25.6721 50.402 25.6721C49.4314 25.6721 48.554 25.4605 47.77 25.0374C46.986 24.6267 46.09 23.8925 45.082 22.8347C43.8998 22.6854 42.842 22.3059 41.9087 21.6961C40.9878 21.0863 40.266 20.3023 39.7434 19.3441C39.2331 18.3734 38.978 17.3032 38.978 16.1334C38.978 14.8516 39.2829 13.7005 39.8927 12.6801C40.5149 11.6472 41.3674 10.8383 42.45 10.2534C43.5451 9.66852 44.7709 9.37608 46.1274 9.37608C47.4838 9.37608 48.7034 9.66852 49.786 10.2534C50.8687 10.8383 51.7211 11.6472 52.3434 12.6801C52.9656 13.7005 53.2767 14.8516 53.2767 16.1334C53.2767 17.6516 52.8474 18.9832 51.9887 20.1281C51.1425 21.273 50.0162 22.0694 48.61 22.5174C48.9211 22.841 49.2198 23.0712 49.506 23.2081C49.8047 23.3574 50.122 23.4321 50.458 23.4321C51.2669 23.4321 51.9762 23.1085 52.586 22.4614L53.93 24.0667ZM42.0394 16.1334C42.0394 16.9423 42.2136 17.6641 42.562 18.2987C42.9229 18.9334 43.4145 19.4312 44.0367 19.7921C44.6589 20.1405 45.3558 20.3147 46.1274 20.3147C46.8989 20.3147 47.5958 20.1405 48.218 19.7921C48.8403 19.4312 49.3256 18.9334 49.674 18.2987C50.0349 17.6641 50.2154 16.9423 50.2154 16.1334C50.2154 15.3245 50.0349 14.6027 49.674 13.9681C49.3256 13.3334 48.8403 12.8419 48.218 12.4934C47.5958 12.1325 46.8989 11.9521 46.1274 11.9521C45.3558 11.9521 44.6589 12.1325 44.0367 12.4934C43.4145 12.8419 42.9229 13.3334 42.562 13.9681C42.2136 14.6027 42.0394 15.3245 42.0394 16.1334Z" fill="#101828"/>
<path d="M65.4614 12.6241V22.6667H62.6987V21.4721C62.3129 21.9076 61.8525 22.2436 61.3174 22.4801C60.7822 22.7041 60.2036 22.8161 59.5814 22.8161C58.2622 22.8161 57.2169 22.4365 56.4454 21.6774C55.6738 20.9183 55.288 19.7921 55.288 18.2987V12.6241H58.2V17.8694C58.2 19.4872 58.8783 20.2961 60.2347 20.2961C60.9316 20.2961 61.4916 20.0721 61.9147 19.6241C62.3378 19.1636 62.5494 18.4854 62.5494 17.5894V12.6241H65.4614Z" fill="#101828"/>
<path d="M72.9378 22.8161C71.88 22.8161 70.928 22.5983 70.0818 22.1627C69.248 21.7147 68.5947 21.0987 68.1218 20.3147C67.6489 19.5307 67.4125 18.641 67.4125 17.6454C67.4125 16.6499 67.6489 15.7601 68.1218 14.9761C68.5947 14.1921 69.248 13.5823 70.0818 13.1467C70.928 12.6987 71.88 12.4747 72.9378 12.4747C73.9956 12.4747 74.9414 12.6987 75.7751 13.1467C76.6089 13.5823 77.2622 14.1921 77.7351 14.9761C78.208 15.7601 78.4445 16.6499 78.4445 17.6454C78.4445 18.641 78.208 19.5307 77.7351 20.3147C77.2622 21.0987 76.6089 21.7147 75.7751 22.1627C74.9414 22.5983 73.9956 22.8161 72.9378 22.8161ZM72.9378 20.4267C73.6845 20.4267 74.2942 20.1779 74.7671 19.6801C75.2525 19.1699 75.4951 18.4916 75.4951 17.6454C75.4951 16.7992 75.2525 16.1272 74.7671 15.6294C74.2942 15.1192 73.6845 14.8641 72.9378 14.8641C72.1911 14.8641 71.5751 15.1192 71.0898 15.6294C70.6045 16.1272 70.3618 16.7992 70.3618 17.6454C70.3618 18.4916 70.6045 19.1699 71.0898 19.6801C71.5751 20.1779 72.1911 20.4267 72.9378 20.4267Z" fill="#101828"/>
<path d="M86.8682 22.1814C86.582 22.393 86.2273 22.5547 85.8042 22.6667C85.3936 22.7663 84.958 22.8161 84.4976 22.8161C83.3029 22.8161 82.3758 22.5112 81.7162 21.9014C81.0691 21.2916 80.7456 20.3956 80.7456 19.2134V15.0881H79.1962V12.8481H80.7456V10.4027H83.6576V12.8481H86.1589V15.0881H83.6576V19.1761C83.6576 19.5992 83.7633 19.929 83.9749 20.1654C84.1989 20.3894 84.51 20.5014 84.9082 20.5014C85.3687 20.5014 85.7607 20.377 86.0842 20.1281L86.8682 22.1814Z" fill="#101828"/>
<path d="M88.5029 12.6241H91.4149V22.6667H88.5029V12.6241ZM89.9589 11.2241C89.4238 11.2241 88.9882 11.0685 88.6522 10.7574C88.3162 10.4463 88.1482 10.0605 88.1482 9.60007C88.1482 9.13963 88.3162 8.75385 88.6522 8.44274C88.9882 8.13163 89.4238 7.97607 89.9589 7.97607C90.494 7.97607 90.9295 8.12541 91.2655 8.42408C91.6015 8.72274 91.7695 9.09608 91.7695 9.54408C91.7695 10.0294 91.6015 10.4339 91.2655 10.7574C90.9295 11.0685 90.494 11.2241 89.9589 11.2241Z" fill="#101828"/>
<path d="M103.955 17.6827C103.955 17.7201 103.936 17.9814 103.899 18.4667H96.3015C96.4383 19.089 96.7619 19.5805 97.2721 19.9414C97.7823 20.3023 98.417 20.4827 99.1761 20.4827C99.6988 20.4827 100.159 20.4081 100.557 20.2587C100.968 20.097 101.348 19.8481 101.696 19.5121L103.245 21.1921C102.3 22.2747 100.918 22.8161 99.1015 22.8161C97.969 22.8161 96.9672 22.5983 96.0961 22.1627C95.225 21.7147 94.553 21.0987 94.0801 20.3147C93.6072 19.5307 93.3708 18.641 93.3708 17.6454C93.3708 16.6623 93.601 15.7787 94.0615 14.9947C94.5343 14.1983 95.1752 13.5823 95.9841 13.1467C96.8055 12.6987 97.7201 12.4747 98.7281 12.4747C99.7112 12.4747 100.601 12.6863 101.397 13.1094C102.194 13.5325 102.816 14.1423 103.264 14.9387C103.725 15.7227 103.955 16.6374 103.955 17.6827ZM98.7468 14.6774C98.0872 14.6774 97.5335 14.8641 97.0855 15.2374C96.6375 15.6107 96.3637 16.121 96.2641 16.7681H101.211C101.111 16.1334 100.837 15.6294 100.389 15.2561C99.9415 14.8703 99.3939 14.6774 98.7468 14.6774Z" fill="#101828"/>
<path d="M111.997 12.4747C113.242 12.4747 114.244 12.8481 115.003 13.5947C115.774 14.3414 116.16 15.449 116.16 16.9174V22.6667H113.248V17.3654C113.248 16.569 113.074 15.9779 112.726 15.5921C112.377 15.1939 111.873 14.9947 111.214 14.9947C110.479 14.9947 109.894 15.225 109.459 15.6854C109.023 16.1334 108.806 16.8054 108.806 17.7014V22.6667H105.894V12.6241H108.675V13.8001C109.061 13.377 109.54 13.0534 110.112 12.8294C110.685 12.593 111.313 12.4747 111.997 12.4747Z" fill="#101828"/>
<path d="M125.277 22.1814C124.991 22.393 124.636 22.5547 124.213 22.6667C123.802 22.7663 123.367 22.8161 122.906 22.8161C121.712 22.8161 120.785 22.5112 120.125 21.9014C119.478 21.2916 119.154 20.3956 119.154 19.2134V15.0881H117.605V12.8481H119.154V10.4027H122.066V12.8481H124.568V15.0881H122.066V19.1761C122.066 19.5992 122.172 19.929 122.384 20.1654C122.608 20.3894 122.919 20.5014 123.317 20.5014C123.778 20.5014 124.17 20.377 124.493 20.1281L125.277 22.1814Z" fill="#101828"/>
</svg>
