<svg width="142" height="40" viewBox="0 0 142 40" fill="none" xmlns="http://www.w3.org/2000/svg">
<rect x="0.75" y="16" width="7.99999" height="7.99999" fill="#039855"/>
<rect x="24.75" y="24" width="8" height="7.99999" transform="rotate(180 24.75 24)" fill="#027A48"/>
<path d="M8.75 16L16.75 8V16L8.75 24V16Z" fill="#A6F4C5"/>
<path d="M16.75 24L8.75001 32L8.75001 24L16.75 16L16.75 24Z" fill="#6CE9A6"/>
<path d="M0.75 16L16.75 0V7.99999L8.74999 16H0.75Z" fill="#32D583"/>
<path d="M24.75 24L8.75002 40L8.75002 32L16.75 24L24.75 24Z" fill="#12B76A"/>
<path d="M42.1734 28.5667C40.9134 28.5667 39.6923 28.3878 38.5101 28.0301C37.3434 27.6723 36.4178 27.1978 35.7334 26.6067L36.7834 24.2501C37.4523 24.779 38.269 25.2145 39.2334 25.5567C40.2134 25.8834 41.1934 26.0467 42.1734 26.0467C43.3867 26.0467 44.2889 25.8523 44.8801 25.4634C45.4867 25.0745 45.7901 24.5612 45.7901 23.9234C45.7901 23.4567 45.619 23.0756 45.2767 22.7801C44.9501 22.469 44.5301 22.2278 44.0167 22.0567C43.5034 21.8856 42.8034 21.6912 41.9167 21.4734C40.6723 21.1778 39.6612 20.8823 38.8834 20.5867C38.1212 20.2912 37.4601 19.8323 36.9001 19.2101C36.3556 18.5723 36.0834 17.7167 36.0834 16.6434C36.0834 15.7412 36.3245 14.9245 36.8067 14.1934C37.3045 13.4467 38.0434 12.8556 39.0234 12.4201C40.019 11.9845 41.2323 11.7667 42.6634 11.7667C43.659 11.7667 44.639 11.8912 45.6034 12.1401C46.5678 12.389 47.4001 12.7467 48.1001 13.2134L47.1434 15.5701C46.4278 15.1501 45.6812 14.8312 44.9034 14.6134C44.1256 14.3956 43.3712 14.2867 42.6401 14.2867C41.4423 14.2867 40.5478 14.489 39.9567 14.8934C39.3812 15.2978 39.0934 15.8345 39.0934 16.5034C39.0934 16.9701 39.2567 17.3512 39.5834 17.6467C39.9256 17.9423 40.3534 18.1756 40.8667 18.3467C41.3801 18.5178 42.0801 18.7123 42.9667 18.9301C44.1801 19.2101 45.1756 19.5056 45.9534 19.8167C46.7312 20.1123 47.3923 20.5712 47.9367 21.1934C48.4967 21.8156 48.7767 22.6556 48.7767 23.7134C48.7767 24.6156 48.5278 25.4323 48.0301 26.1634C47.5478 26.8945 46.8089 27.4778 45.8134 27.9134C44.8178 28.349 43.6045 28.5667 42.1734 28.5667Z" fill="#101828"/>
<path d="M51.5045 15.8734H54.4212V28.3334H51.5045V15.8734ZM52.9745 13.8201C52.4456 13.8201 52.0023 13.6567 51.6445 13.3301C51.2868 12.9878 51.1079 12.5678 51.1079 12.0701C51.1079 11.5723 51.2868 11.1601 51.6445 10.8334C52.0023 10.4912 52.4456 10.3201 52.9745 10.3201C53.5034 10.3201 53.9468 10.4834 54.3045 10.8101C54.6623 11.1212 54.8412 11.5178 54.8412 12.0001C54.8412 12.5134 54.6623 12.949 54.3045 13.3067C53.9623 13.649 53.519 13.8201 52.9745 13.8201Z" fill="#101828"/>
<path d="M62.0993 28.4967C61.0882 28.4967 60.1004 28.3645 59.136 28.1001C58.1715 27.8356 57.4015 27.5012 56.826 27.0967L57.946 24.8801C58.506 25.2534 59.1749 25.5567 59.9527 25.7901C60.746 26.0078 61.5238 26.1167 62.286 26.1167C64.0282 26.1167 64.8993 25.6578 64.8993 24.7401C64.8993 24.3045 64.6738 24.0012 64.2227 23.8301C63.7871 23.659 63.0793 23.4956 62.0993 23.3401C61.0727 23.1845 60.2327 23.0056 59.5793 22.8034C58.9415 22.6012 58.3815 22.2512 57.8993 21.7534C57.4327 21.2401 57.1993 20.5323 57.1993 19.6301C57.1993 18.4478 57.6893 17.5067 58.6693 16.8067C59.6649 16.0912 61.0027 15.7334 62.6827 15.7334C63.5382 15.7334 64.3938 15.8345 65.2493 16.0367C66.1049 16.2234 66.8049 16.4801 67.3493 16.8067L66.2293 19.0234C65.1715 18.4012 63.9815 18.0901 62.6593 18.0901C61.8038 18.0901 61.1504 18.2223 60.6993 18.4867C60.2638 18.7356 60.046 19.0701 60.046 19.4901C60.046 19.9567 60.2793 20.2912 60.746 20.4934C61.2282 20.6801 61.9671 20.859 62.9627 21.0301C63.9582 21.1856 64.7749 21.3645 65.4127 21.5667C66.0504 21.769 66.5949 22.1112 67.046 22.5934C67.5127 23.0756 67.746 23.7601 67.746 24.6467C67.746 25.8134 67.2404 26.7467 66.2293 27.4467C65.2182 28.1467 63.8415 28.4967 62.0993 28.4967Z" fill="#101828"/>
<path d="M81.6966 15.8734L75.8633 29.3367C75.3188 30.6901 74.6577 31.639 73.8799 32.1834C73.1021 32.7434 72.161 33.0234 71.0566 33.0234C70.4344 33.0234 69.8199 32.9223 69.2133 32.7201C68.6066 32.5178 68.1088 32.2378 67.7199 31.8801L68.8866 29.7334C69.1666 29.9978 69.4933 30.2078 69.8666 30.3634C70.2555 30.519 70.6444 30.5967 71.0333 30.5967C71.5466 30.5967 71.9666 30.4645 72.2933 30.2001C72.6355 29.9356 72.9466 29.4923 73.2266 28.8701L73.4366 28.3801L67.9999 15.8734H71.0333L74.9533 25.0901L78.8966 15.8734H81.6966Z" fill="#101828"/>
<path d="M90.4262 15.7334C91.6395 15.7334 92.7206 15.9978 93.6695 16.5267C94.6339 17.0556 95.3884 17.8023 95.9328 18.7667C96.4773 19.7312 96.7495 20.8434 96.7495 22.1034C96.7495 23.3634 96.4773 24.4834 95.9328 25.4634C95.3884 26.4278 94.6339 27.1745 93.6695 27.7034C92.7206 28.2323 91.6395 28.4967 90.4262 28.4967C88.7462 28.4967 87.4162 27.9367 86.4362 26.8167V32.8601H83.5195V15.8734H86.2962V17.5067C86.7784 16.9156 87.3695 16.4723 88.0695 16.1767C88.785 15.8812 89.5706 15.7334 90.4262 15.7334ZM90.0995 26.0001C91.1728 26.0001 92.0517 25.6423 92.7362 24.9267C93.4362 24.2112 93.7862 23.2701 93.7862 22.1034C93.7862 20.9367 93.4362 19.9956 92.7362 19.2801C92.0517 18.5645 91.1728 18.2067 90.0995 18.2067C89.3995 18.2067 88.7695 18.3701 88.2095 18.6967C87.6495 19.0078 87.2062 19.459 86.8795 20.0501C86.5528 20.6412 86.3895 21.3256 86.3895 22.1034C86.3895 22.8812 86.5528 23.5656 86.8795 24.1567C87.2062 24.7478 87.6495 25.2067 88.2095 25.5334C88.7695 25.8445 89.3995 26.0001 90.0995 26.0001Z" fill="#101828"/>
<path d="M106.586 15.7334C108.157 15.7334 109.417 16.1923 110.366 17.1101C111.314 18.0278 111.789 19.389 111.789 21.1934V28.3334H108.872V21.5667C108.872 20.4778 108.616 19.6612 108.102 19.1167C107.589 18.5567 106.858 18.2767 105.909 18.2767C104.836 18.2767 103.988 18.6034 103.366 19.2567C102.743 19.8945 102.432 20.8201 102.432 22.0334V28.3334H99.5156V11.0201H102.432V17.3201C102.914 16.8067 103.506 16.4178 104.206 16.1534C104.921 15.8734 105.714 15.7334 106.586 15.7334Z" fill="#101828"/>
<path d="M127.552 15.8734V28.3334H124.776V26.7467C124.309 27.3067 123.726 27.7423 123.026 28.0534C122.326 28.349 121.571 28.4967 120.762 28.4967C119.098 28.4967 117.783 28.0378 116.819 27.1201C115.87 26.1867 115.396 24.8101 115.396 22.9901V15.8734H118.312V22.5934C118.312 23.7134 118.561 24.5534 119.059 25.1134C119.572 25.6578 120.296 25.9301 121.229 25.9301C122.271 25.9301 123.096 25.6112 123.702 24.9734C124.324 24.3201 124.636 23.3867 124.636 22.1734V15.8734H127.552Z" fill="#101828"/>
<path d="M135.221 28.4967C134.21 28.4967 133.222 28.3645 132.258 28.1001C131.293 27.8356 130.523 27.5012 129.948 27.0967L131.068 24.8801C131.628 25.2534 132.297 25.5567 133.074 25.7901C133.868 26.0078 134.645 26.1167 135.408 26.1167C137.15 26.1167 138.021 25.6578 138.021 24.7401C138.021 24.3045 137.795 24.0012 137.344 23.8301C136.909 23.659 136.201 23.4956 135.221 23.3401C134.194 23.1845 133.354 23.0056 132.701 22.8034C132.063 22.6012 131.503 22.2512 131.021 21.7534C130.554 21.2401 130.321 20.5323 130.321 19.6301C130.321 18.4478 130.811 17.5067 131.791 16.8067C132.787 16.0912 134.124 15.7334 135.804 15.7334C136.66 15.7334 137.515 15.8345 138.371 16.0367C139.227 16.2234 139.927 16.4801 140.471 16.8067L139.351 19.0234C138.293 18.4012 137.103 18.0901 135.781 18.0901C134.925 18.0901 134.272 18.2223 133.821 18.4867C133.385 18.7356 133.168 19.0701 133.168 19.4901C133.168 19.9567 133.401 20.2912 133.868 20.4934C134.35 20.6801 135.089 20.859 136.084 21.0301C137.08 21.1856 137.897 21.3645 138.534 21.5667C139.172 21.769 139.717 22.1112 140.168 22.5934C140.634 23.0756 140.868 23.7601 140.868 24.6467C140.868 25.8134 140.362 26.7467 139.351 27.4467C138.34 28.1467 136.963 28.4967 135.221 28.4967Z" fill="#101828"/>
</svg>
